<mxfile host="app.diagrams.net" modified="2024-05-23T14:15:12.091Z" agent="Mozilla/5.0 (Windows NT 10.0; Win64; x64) AppleWebKit/537.36 (KHTML, like Gecko) Chrome/121.0.0.0 Safari/537.36" etag="GRXqkBEMtJyIFfaVkip-" version="24.4.6" type="device">
  <diagram name="Página-1" id="yOIJvahzvwgtZPqb39ht">
    <mxGraphModel dx="1434" dy="782" grid="1" gridSize="10" guides="1" tooltips="1" connect="1" arrows="1" fold="1" page="1" pageScale="1" pageWidth="827" pageHeight="1169" math="0" shadow="0">
      <root>
        <mxCell id="0" />
        <mxCell id="1" parent="0" />
        <mxCell id="WhsLASnFHbzqO6A5ipdJ-3" value="" style="edgeStyle=orthogonalEdgeStyle;rounded=0;orthogonalLoop=1;jettySize=auto;html=1;" edge="1" parent="1" source="WhsLASnFHbzqO6A5ipdJ-1" target="WhsLASnFHbzqO6A5ipdJ-2">
          <mxGeometry relative="1" as="geometry" />
        </mxCell>
        <mxCell id="WhsLASnFHbzqO6A5ipdJ-1" value="Início" style="ellipse;whiteSpace=wrap;html=1;fillColor=#f8cecc;strokeColor=#b85450;sketch=1;curveFitting=1;jiggle=2;" vertex="1" parent="1">
          <mxGeometry x="100" y="80" width="120" height="80" as="geometry" />
        </mxCell>
        <mxCell id="WhsLASnFHbzqO6A5ipdJ-5" value="" style="edgeStyle=orthogonalEdgeStyle;rounded=0;orthogonalLoop=1;jettySize=auto;html=1;" edge="1" parent="1" source="WhsLASnFHbzqO6A5ipdJ-2" target="WhsLASnFHbzqO6A5ipdJ-4">
          <mxGeometry relative="1" as="geometry" />
        </mxCell>
        <mxCell id="WhsLASnFHbzqO6A5ipdJ-2" value="Analisar o tecido" style="rounded=0;whiteSpace=wrap;html=1;fillColor=#dae8fc;strokeColor=#6c8ebf;glass=1;" vertex="1" parent="1">
          <mxGeometry x="100" y="210" width="120" height="60" as="geometry" />
        </mxCell>
        <mxCell id="WhsLASnFHbzqO6A5ipdJ-9" value="" style="edgeStyle=orthogonalEdgeStyle;rounded=0;orthogonalLoop=1;jettySize=auto;html=1;" edge="1" parent="1" source="WhsLASnFHbzqO6A5ipdJ-4" target="WhsLASnFHbzqO6A5ipdJ-8">
          <mxGeometry relative="1" as="geometry" />
        </mxCell>
        <mxCell id="WhsLASnFHbzqO6A5ipdJ-10" value="SIM" style="edgeLabel;html=1;align=center;verticalAlign=middle;resizable=0;points=[];" vertex="1" connectable="0" parent="WhsLASnFHbzqO6A5ipdJ-9">
          <mxGeometry x="-0.1994" relative="1" as="geometry">
            <mxPoint as="offset" />
          </mxGeometry>
        </mxCell>
        <mxCell id="WhsLASnFHbzqO6A5ipdJ-4" value="Tem a máquina&lt;div&gt;ideal para&lt;/div&gt;&lt;div&gt;este tecido?&lt;/div&gt;" style="rhombus;whiteSpace=wrap;html=1;fillColor=#e1d5e7;strokeColor=#9673a6;sketch=1;curveFitting=1;jiggle=2;" vertex="1" parent="1">
          <mxGeometry x="98.75" y="320" width="122.5" height="120" as="geometry" />
        </mxCell>
        <mxCell id="WhsLASnFHbzqO6A5ipdJ-6" value="" style="endArrow=classic;html=1;rounded=0;exitX=1;exitY=0.5;exitDx=0;exitDy=0;" edge="1" parent="1" source="WhsLASnFHbzqO6A5ipdJ-4">
          <mxGeometry width="50" height="50" relative="1" as="geometry">
            <mxPoint x="390" y="430" as="sourcePoint" />
            <mxPoint x="221" y="240" as="targetPoint" />
            <Array as="points">
              <mxPoint x="320" y="380" />
              <mxPoint x="320" y="240" />
            </Array>
          </mxGeometry>
        </mxCell>
        <mxCell id="WhsLASnFHbzqO6A5ipdJ-7" value="NÃO" style="edgeLabel;html=1;align=center;verticalAlign=middle;resizable=0;points=[];" vertex="1" connectable="0" parent="WhsLASnFHbzqO6A5ipdJ-6">
          <mxGeometry x="-0.7291" y="-1" relative="1" as="geometry">
            <mxPoint as="offset" />
          </mxGeometry>
        </mxCell>
        <mxCell id="WhsLASnFHbzqO6A5ipdJ-13" value="" style="edgeStyle=orthogonalEdgeStyle;rounded=0;orthogonalLoop=1;jettySize=auto;html=1;" edge="1" parent="1" source="WhsLASnFHbzqO6A5ipdJ-8" target="WhsLASnFHbzqO6A5ipdJ-12">
          <mxGeometry relative="1" as="geometry" />
        </mxCell>
        <mxCell id="WhsLASnFHbzqO6A5ipdJ-8" value="Estender o tecido&lt;div&gt;sobre a mesa&lt;/div&gt;" style="rounded=0;whiteSpace=wrap;html=1;fillColor=#dae8fc;strokeColor=#6c8ebf;glass=1;" vertex="1" parent="1">
          <mxGeometry x="100" y="500" width="120" height="60" as="geometry" />
        </mxCell>
        <mxCell id="WhsLASnFHbzqO6A5ipdJ-19" value="" style="edgeStyle=orthogonalEdgeStyle;rounded=0;orthogonalLoop=1;jettySize=auto;html=1;" edge="1" parent="1" source="WhsLASnFHbzqO6A5ipdJ-12" target="WhsLASnFHbzqO6A5ipdJ-18">
          <mxGeometry relative="1" as="geometry" />
        </mxCell>
        <mxCell id="WhsLASnFHbzqO6A5ipdJ-12" value="Analisar qual o&lt;div&gt;modelo para melhor&lt;/div&gt;&lt;div&gt;desempenho&lt;/div&gt;" style="shape=document;whiteSpace=wrap;html=1;boundedLbl=1;fillColor=#d5e8d4;strokeColor=#82b366;shadow=1;" vertex="1" parent="1">
          <mxGeometry x="101.41" y="620" width="117.19" height="90" as="geometry" />
        </mxCell>
        <mxCell id="WhsLASnFHbzqO6A5ipdJ-24" value="" style="edgeStyle=orthogonalEdgeStyle;rounded=0;orthogonalLoop=1;jettySize=auto;html=1;" edge="1" parent="1" source="WhsLASnFHbzqO6A5ipdJ-18" target="WhsLASnFHbzqO6A5ipdJ-21">
          <mxGeometry relative="1" as="geometry" />
        </mxCell>
        <mxCell id="WhsLASnFHbzqO6A5ipdJ-25" value="Sim" style="edgeLabel;html=1;align=center;verticalAlign=middle;resizable=0;points=[];" vertex="1" connectable="0" parent="WhsLASnFHbzqO6A5ipdJ-24">
          <mxGeometry x="-0.1994" y="-2" relative="1" as="geometry">
            <mxPoint as="offset" />
          </mxGeometry>
        </mxCell>
        <mxCell id="WhsLASnFHbzqO6A5ipdJ-18" value="O modelo foi&amp;nbsp;&lt;div&gt;colocado sobre&lt;/div&gt;&lt;div&gt;o tecido?&lt;/div&gt;" style="rhombus;whiteSpace=wrap;html=1;fillColor=#e1d5e7;strokeColor=#9673a6;sketch=1;curveFitting=1;jiggle=2;" vertex="1" parent="1">
          <mxGeometry x="98.75" y="760" width="122.5" height="120" as="geometry" />
        </mxCell>
        <mxCell id="WhsLASnFHbzqO6A5ipdJ-27" value="" style="edgeStyle=orthogonalEdgeStyle;rounded=0;orthogonalLoop=1;jettySize=auto;html=1;" edge="1" parent="1" source="WhsLASnFHbzqO6A5ipdJ-21" target="WhsLASnFHbzqO6A5ipdJ-26">
          <mxGeometry relative="1" as="geometry" />
        </mxCell>
        <mxCell id="WhsLASnFHbzqO6A5ipdJ-21" value="Cortar conforme&lt;div&gt;o modelo&lt;/div&gt;" style="rounded=0;whiteSpace=wrap;html=1;fillColor=#dae8fc;strokeColor=#6c8ebf;glass=1;" vertex="1" parent="1">
          <mxGeometry x="100" y="940" width="120" height="60" as="geometry" />
        </mxCell>
        <mxCell id="WhsLASnFHbzqO6A5ipdJ-22" value="" style="endArrow=classic;html=1;rounded=0;exitX=1;exitY=0.5;exitDx=0;exitDy=0;entryX=1.003;entryY=0.4;entryDx=0;entryDy=0;entryPerimeter=0;" edge="1" parent="1" source="WhsLASnFHbzqO6A5ipdJ-18" target="WhsLASnFHbzqO6A5ipdJ-12">
          <mxGeometry width="50" height="50" relative="1" as="geometry">
            <mxPoint x="390" y="830" as="sourcePoint" />
            <mxPoint x="290" y="620" as="targetPoint" />
            <Array as="points">
              <mxPoint x="350" y="820" />
              <mxPoint x="350" y="656" />
            </Array>
          </mxGeometry>
        </mxCell>
        <mxCell id="WhsLASnFHbzqO6A5ipdJ-23" value="NÃO" style="edgeLabel;html=1;align=center;verticalAlign=middle;resizable=0;points=[];" vertex="1" connectable="0" parent="WhsLASnFHbzqO6A5ipdJ-22">
          <mxGeometry x="-0.7227" y="-1" relative="1" as="geometry">
            <mxPoint as="offset" />
          </mxGeometry>
        </mxCell>
        <mxCell id="WhsLASnFHbzqO6A5ipdJ-26" value="Fim" style="ellipse;whiteSpace=wrap;html=1;fillColor=#f8cecc;strokeColor=#b85450;sketch=1;curveFitting=1;jiggle=2;" vertex="1" parent="1">
          <mxGeometry x="280" y="930" width="120" height="80" as="geometry" />
        </mxCell>
      </root>
    </mxGraphModel>
  </diagram>
</mxfile>
